<svg width="26" height="26" viewBox="0 0 26 26" fill="none" xmlns="http://www.w3.org/2000/svg">
<path d="M25.25 12.751C25.25 15.1243 24.5462 17.4444 23.2276 19.4178C21.9091 21.3912 20.0349 22.9293 17.8422 23.8375C15.6495 24.7458 13.2367 24.9834 10.9089 24.5204C8.58115 24.0574 6.44295 22.9145 4.76472 21.2363C3.08649 19.558 1.9436 17.4198 1.48058 15.0921C1.01756 12.7643 1.2552 10.3515 2.16345 8.15877C3.0717 5.96606 4.60977 4.09192 6.58316 2.77334C8.55655 1.45476 10.8766 0.750977 13.25 0.750977C16.4326 0.750977 19.4848 2.01526 21.7353 4.26569C23.9857 6.51613 25.25 9.56838 25.25 12.751V12.751Z" stroke="#100937" stroke-width="1.5" stroke-miterlimit="10" stroke-linecap="round" stroke-linejoin="round"/>
<path d="M17.701 16.5726L12.8102 13.6498V7.36182" stroke="#100937" stroke-width="1.5" stroke-miterlimit="10" stroke-linecap="round" stroke-linejoin="round"/>
</svg>
